<?xml version="1.0" encoding="UTF-8"?>
<!DOCTYPE svg PUBLIC "-//W3C//DTD SVG 1.0//EN" "http://www.w3.org/TR/2001/REC-SVG-20010904/DTD/svg10.dtd">
<svg xmlns="http://www.w3.org/2000/svg" width="398" height="304" viewBox="0 0 398 304" xml:space="preserve">	
<radialGradient id="rg" cx="-200.7695" cy="451.7227" r="1.4229" fx="-200.7695" fy="451.7227" gradientTransform="matrix(375.3208 0 0 -376.2162 75451.3438 170013.8281)" gradientUnits="userSpaceOnUse">
<stop offset="0" style="stop-color:#FFFFFF"/>
<stop offset="1" style="stop-color:#000000"/>
</radialGradient>
<path fill="url(#rg)" stroke="#000000" stroke-width="20.9987" d="M64.536,11.058h268.769 c29.424,0,53.275,23.853,53.275,53.275l0.16,175.332c0,29.424-23.852,53.277-53.275,53.277H64.696 c-29.423,0-53.276-23.854-53.276-53.277L11.26,64.333C11.26,34.91,35.112,11.058,64.536,11.058"/>
<path opacity="0.41" fill="#FFFFFF" d="M29.993,159.68V73.424c0-22.656,11.702-43.864,45.728-43.864h248.441 c25.668,0,43.242,18.398,43.242,41.753v14.427c-51.195-17.46-116.781-9.377-176.176,28.826 C124.222,158.737,90.783,173.866,29.993,159.68"/>
<path stroke="#FFFFFF" stroke-width="3" d="M231.133,41.959c-5.989,5.021-9.654,11.968-10.322,19.562V61.52 c-0.776,8.818,2.721,18.051,9.258,24.03c6.499,5.945,15.418,7.833,24.008,6.918c0.596,0.787,26.781,35.427,27.914,36.926 c-1.253,0.929-6.374,4.729-7.615,5.65c-0.752-0.066-163.055-14.376-164.374-14.492c-2.12-9.051-8.646-16.636-17.051-20.495 c-8.514-3.909-18.613-3.825-27.058,0.233c-7.96,3.825-14.111,11.055-16.152,19.698c-2.065,8.75,0.263,18.029,5.971,24.933 c5.873,7.102,14.815,11.244,24.007,11.37c9.479,0.131,18.829-4.1,24.763-11.537c1.699-2.129,3.099-4.495,4.141-7.013 c0.204,0.018,1.428,0.125,1.428,0.125s0.016-0.185,0.028-0.333c1.941,0.171,160.358,14.138,161.139,14.206 c0.518,0.579,31.547,35.245,31.547,35.245l46.094-36.158l-38.744-41.354c0,0-12.692,8.718-14.108,9.69 c-1.071-1.441-23.459-31.58-24.618-33.14c4.752-3.205,6.859-5.449,9.026-10.774c0.158,0.014,1.354,0.119,1.354,0.119l0.735-8.36 l0.75-8.481c0,0-1.229-0.108-1.443-0.127c-1.99-9.034-8.349-16.666-16.655-20.634c-9.376-4.478-20.771-4.079-29.75,1.183 C233.898,39.83,232.469,40.839,231.133,41.959 M250.555,76.829L250.555,76.829c-4.396-0.387-8.641-2.7-11.041-6.454 c-2.414-3.775-2.527-8.625-0.158-12.449c5.009-8.087,17.291-8.254,23.233-1.218c-3.146-0.277-12.182-1.072-12.182-1.072 l-1.482,16.845c0,0,8.973,0.789,12.085,1.063C258.15,75.925,254.407,77.168,250.555,76.829 M65.892,126.497 c0-5.443,3.943-9.962,8.966-11.642c5.654-1.891,12.141-0.229,16.012,4.351c-3.147-0.276-12.18-1.071-12.18-1.071l-1.481,16.844 c0,0,8.971,0.789,12.083,1.063c-6.015,5.012-15.455,4.205-20.502-1.813C66.902,131.977,65.892,129.264,65.892,126.497 M301.451,135.269c0,0,5.115-4.013,6.297-4.939c1.115,1.246,15.174,16.949,16.438,18.361 c-1.491,1.169-18.074,14.178-19.391,15.211c-1.115-1.246-15.173-16.951-16.437-18.363 C289.841,144.375,301.451,135.269,301.451,135.269"/>
<polygon stroke="#FFFFFF" stroke-width="3" points="72.374,192.79 54.249,192.79 54.249,252.79 73.374,252.79 73.374,192.79 "/>
<polygon stroke="#FFFFFF" stroke-width="3" points="99.641,191.29 81.516,191.29 81.516,205.54 100.641,205.54 100.641,191.29"/>
<polygon stroke="#FFFFFF" stroke-width="3" points="99.641,207.915 81.516,207.915 81.516,252.79 100.641,252.79 100.641,207.915 "/>
<path stroke="#FFFFFF" stroke-width="3" d="M126.034,192.79h-17.625v60h17.088c0,0,0-2.35,0-3.697 c1.472,1.44,3.069,2.599,4.787,3.427c2.439,1.175,5.209,1.771,8.233,1.771c5.804,0,10.551-2.222,14.108-6.602 c3.506-4.321,5.284-10.084,5.284-17.129c0-7.098-1.792-12.881-5.327-17.188c-3.584-4.367-8.396-6.581-14.3-6.581 c-2.5,0-4.874,0.515-7.058,1.528c-1.5,0.696-2.877,1.717-4.19,2.88c0-3.575,0-18.408,0-18.408H126.034z M128.539,237.477 L128.539,237.477c-1.104-1.561-1.663-3.803-1.663-6.667c0-3.126,0.514-5.442,1.527-6.884c0.949-1.354,2.41-2.011,4.467-2.011 c2.027,0,3.468,0.65,4.405,1.989c1.001,1.433,1.509,3.756,1.509,6.905c0,2.891-0.554,5.141-1.645,6.687 c-1.029,1.46-2.425,2.169-4.269,2.169C130.995,239.665,129.579,238.949,128.539,237.477z"/>
<path stroke="#FFFFFF" stroke-width="3" d="M194.694,206.79h-1.539c-3.711,0-6.748,0.777-9.025,2.312 c-1.276,0.859-2.372,2.028-3.316,3.438c0-1.804,0-4.625,0-4.625h-17.744v44.875h19.125v-18.613c0-3.019,0.713-5.234,2.12-6.585 c1.418-1.361,3.741-2.052,6.905-2.052l1.591,0.059l2.879,0.217l0.005-1.078V206.79H194.694z"/>
<path stroke="#FFFFFF" stroke-width="3" d="M204.652,210.189c-3.865,2.587-5.826,6.398-5.826,11.327 c0,4.108,1.359,7.286,4.041,9.445c2.594,2.088,7.865,3.956,16.115,5.713c-0.033-0.008,0.875,0.195,0.875,0.195 c3.605,0.777,5.594,1.937,5.594,3.262c0,0.811-0.301,1.36-0.979,1.782c-0.803,0.498-2.023,0.751-3.627,0.751 c-1.609,0-2.803-0.356-3.547-1.061c-0.729-0.688-1.098-1.803-1.098-3.314v-1h-18.576l0.079,1.073 c0.389,5.31,2.56,9.351,6.45,12.012c3.797,2.598,9.33,3.915,16.445,3.915c7.656,0,13.555-1.312,17.529-3.898 c4.113-2.677,6.197-6.691,6.197-11.934c0-4.167-1.299-7.393-3.861-9.589c-2.488-2.133-7.596-4.063-15.615-5.901 c-0.029-0.006-2.365-0.479-2.365-0.479c-3.244-0.682-5.033-1.682-5.033-2.817c0-0.634,0.229-1.064,0.738-1.395 c0.629-0.405,1.613-0.611,2.926-0.611c1.299,0,2.33,0.309,3.156,0.944c0.777,0.601,1.205,1.389,1.311,2.407l0.092,0.898h17.277 l-0.131-1.117c-0.563-4.764-2.752-8.406-6.506-10.829c-3.66-2.358-8.838-3.554-15.391-3.554 C213.869,206.415,208.395,207.685,204.652,210.189z"/>
<path stroke="#FFFFFF" stroke-width="3" d="M292.951,207.915h-16.953c0,0-5.086,18.006-6.527,23.105 c-1.465-5.096-6.637-23.105-6.637-23.105h-19.168l15.699,44.875h20.438l14.523-44.875H292.951z"/>
<path stroke="#FFFFFF" stroke-width="3" d="M299.311,213.308c-3.149,3.875-4.642,8.781-5.072,13.698 c-0.464,5.287,0.045,10.856,2.469,15.65c2.164,4.281,5.826,7.741,10.374,9.352c4.887,1.73,11.19,1.757,15.871-0.617 c0.791-0.401,1.543-0.878,2.265-1.395c0,0.07,0,0.308,0,0.308c0,1.627-0.052,3.29-0.401,4.886 c-0.147,0.672-0.345,1.438-0.835,1.952c-1.164,1.217-3.369,1.21-4.91,1.132c-1.486-0.076-3.026-0.378-3.375-2.061l-0.164-0.798 h-18.844l0.164,1.143c1.637,11.367,14.367,13.759,23.898,13.448c4.754-0.155,9.771-0.76,14.061-2.958 c3.683-1.887,6.163-5.098,7.446-9.003c1.013-3.085,1.335-6.369,1.335-9.603v-40.527h-17.076c0,0,0,2.459,0,3.913 c-3.945-3.996-9.47-5.429-14.973-4.96C306.712,207.28,302.372,209.541,299.311,213.308 M314.613,237.114L314.613,237.114 c-1.042-1.528-1.342-3.499-1.465-5.303c-0.156-2.293-0.116-4.778,0.703-6.956c0.708-1.879,2.133-3.142,4.158-3.386 c2.09-0.253,4.164,0.343,5.445,2.085c1.226,1.665,1.597,3.829,1.669,5.851c0.078,2.182-0.04,4.568-0.916,6.602 C322.659,239.601,316.911,240.489,314.613,237.114"/>
</svg>